<svg width="280" height="280" viewBox="0 0 280 280" fill="none" xmlns="http://www.w3.org/2000/svg">
<path d="M198.081 191.414H102.281C94.5004 191.414 88.1929 197.631 88.1929 205.3C88.1929 212.968 94.5004 219.185 102.281 219.185H198.081C205.862 219.185 212.169 212.968 212.169 205.3C212.169 197.631 205.862 191.414 198.081 191.414Z" fill="#EB3A6F"/>
<path d="M198.081 60H102.281C94.5004 60 88.1929 66.2167 88.1929 73.8854C88.1929 81.554 94.5004 87.7707 102.281 87.7707H198.081C205.862 87.7707 212.169 81.554 212.169 73.8854C212.169 66.2167 205.862 60 198.081 60Z" fill="#EB3A6F"/>
<path d="M123.219 125.459H65.0686C57.2987 125.459 51 131.787 51 139.593C51 147.398 57.2987 153.726 65.0686 153.726H123.219C130.989 153.726 137.288 147.398 137.288 139.593C137.288 131.787 130.989 125.459 123.219 125.459Z" fill="#EB3A6F"/>
<path d="M170.265 153.726C178.071 153.726 184.398 147.398 184.398 139.593C184.398 131.787 178.071 125.459 170.265 125.459C162.46 125.459 156.132 131.787 156.132 139.593C156.132 147.398 162.46 153.726 170.265 153.726Z" fill="#EB3A6F"/>
</svg>
